<svg width="45" height="45" viewBox="0 0 45 45" fill="none" xmlns="http://www.w3.org/2000/svg">
<path fill-rule="evenodd" clip-rule="evenodd" d="M22.5 45C34.9264 45 45 34.9264 45 22.5C45 10.0736 34.9264 0 22.5 0C10.0736 0 0 10.0736 0 22.5C0 34.9264 10.0736 45 22.5 45ZM41 22.5C41 32.7173 32.7173 41 22.5 41C12.2827 41 4 32.7173 4 22.5C4 12.2827 12.2827 4 22.5 4C32.7173 4 41 12.2827 41 22.5ZM34.525 22.9625C34.525 29.3483 29.3483 34.525 22.9625 34.525C16.5767 34.525 11.4 29.3483 11.4 22.9625C11.4 16.5767 16.5767 11.4 22.9625 11.4C29.3483 11.4 34.525 16.5767 34.525 22.9625Z" fill="white"/>
</svg>
