<?xml version="1.0" encoding="UTF-8"?>
<!DOCTYPE svg PUBLIC "-//W3C//DTD SVG 1.1//EN" "http://www.w3.org/Graphics/SVG/1.1/DTD/svg11.dtd">
<!-- Creator: CorelDRAW X8 -->
<svg xmlns="http://www.w3.org/2000/svg" xml:space="preserve" width="215.9mm" height="279.4mm" version="1.1" style="shape-rendering:geometricPrecision; text-rendering:geometricPrecision; image-rendering:optimizeQuality; fill-rule:evenodd; clip-rule:evenodd"
viewBox="0 0 21590 27940"
 xmlns:xlink="http://www.w3.org/1999/xlink">
 <defs>
  <style type="text/css">
   <![CDATA[
    .fil0 {fill:#7EC2E0}
   ]]>
  </style>
 </defs>
 <g id="Capa_x0020_1">
  <metadata id="CorelCorpID_0Corel-Layer"/>
  <polygon class="fil0" points="-18844,13441 -15062,13441 -13739,12118 -18844,12118 "/>
  <polygon class="fil0" points="-8622,12118 -9945,13441 -15326,13441 -14003,12118 "/>
  <polygon class="fil0" points="-3505,12118 -4828,13441 -10209,13441 -8886,12118 "/>
  <polygon class="fil0" points="1612,12118 289,13441 -5092,13441 -3769,12118 "/>
  <polygon class="fil0" points="6729,12118 5406,13441 25,13441 1347,12118 "/>
  <polygon class="fil0" points="11846,12118 10523,13441 5141,13441 6464,12118 "/>
  <polygon class="fil0" points="16963,12118 15640,13441 10258,13441 11581,12118 "/>
  <polygon class="fil0" points="22080,12118 20757,13441 15375,13441 16698,12118 "/>
  <polygon class="fil0" points="27197,12118 25874,13441 20492,13441 21815,12118 "/>
  <polygon class="fil0" points="32314,12118 30991,13441 25609,13441 26932,12118 "/>
  <polygon class="fil0" points="37430,12118 36107,13441 30726,13441 32049,12118 "/>
  <polygon class="fil0" points="35843,13441 40434,13441 40434,12118 37166,12118 "/>
  <polygon class="fil0" points="-18844,14631 -15062,14631 -13739,13309 -18844,13309 "/>
  <polygon class="fil0" points="-8622,13309 -9945,14631 -15326,14631 -14003,13309 "/>
  <polygon class="fil0" points="-3505,13309 -4828,14631 -10209,14631 -8886,13309 "/>
  <polygon class="fil0" points="1612,13309 289,14631 -5092,14631 -3769,13309 "/>
  <polygon class="fil0" points="6729,13309 5406,14631 25,14631 1347,13309 "/>
  <polygon class="fil0" points="11846,13309 10523,14631 5141,14631 6464,13309 "/>
  <polygon class="fil0" points="16963,13309 15640,14631 10258,14631 11581,13309 "/>
  <polygon class="fil0" points="22080,13309 20757,14631 15375,14631 16698,13309 "/>
  <polygon class="fil0" points="27197,13309 25874,14631 20492,14631 21815,13309 "/>
  <polygon class="fil0" points="32314,13309 30991,14631 25609,14631 26932,13309 "/>
  <polygon class="fil0" points="37430,13309 36107,14631 30726,14631 32049,13309 "/>
  <polygon class="fil0" points="35843,14631 40434,14631 40434,13309 37166,13309 "/>
  <polygon class="fil0" points="-18844,15822 -15062,15822 -13739,14499 -18844,14499 "/>
  <polygon class="fil0" points="-8622,14499 -9945,15822 -15326,15822 -14003,14499 "/>
  <polygon class="fil0" points="-3505,14499 -4828,15822 -10209,15822 -8886,14499 "/>
  <polygon class="fil0" points="1612,14499 289,15822 -5092,15822 -3769,14499 "/>
  <polygon class="fil0" points="6729,14499 5406,15822 25,15822 1347,14499 "/>
  <polygon class="fil0" points="11846,14499 10523,15822 5141,15822 6464,14499 "/>
  <polygon class="fil0" points="16963,14499 15640,15822 10258,15822 11581,14499 "/>
  <polygon class="fil0" points="22080,14499 20757,15822 15375,15822 16698,14499 "/>
  <polygon class="fil0" points="27197,14499 25874,15822 20492,15822 21815,14499 "/>
  <polygon class="fil0" points="32314,14499 30991,15822 25609,15822 26932,14499 "/>
  <polygon class="fil0" points="37430,14499 36107,15822 30726,15822 32049,14499 "/>
  <polygon class="fil0" points="35843,15822 40434,15822 40434,14499 37166,14499 "/>
 </g>
</svg>
